<?xml version="1.0" encoding="UTF-8" standalone="no"?>
<!-- Generator: Adobe Illustrator 15.1.0, SVG Export Plug-In  -->

<svg
   xmlns:dc="http://purl.org/dc/elements/1.1/"
   xmlns:cc="http://creativecommons.org/ns#"
   xmlns:rdf="http://www.w3.org/1999/02/22-rdf-syntax-ns#"
   xmlns:svg="http://www.w3.org/2000/svg"
   xmlns="http://www.w3.org/2000/svg"
   xmlns:xlink="http://www.w3.org/1999/xlink"
   xmlns:sodipodi="http://sodipodi.sourceforge.net/DTD/sodipodi-0.dtd"
   xmlns:inkscape="http://www.inkscape.org/namespaces/inkscape"
   version="1.1"
   x="0px"
   y="0px"
   width="12px"
   height="12px"
   viewBox="-0.4 -0.3 12 12"
   style="overflow:visible;enable-background:new -0.4 -0.3 12 12;"
   xml:space="preserve"
   preserveAspectRatio="xMinYMid meet"
   id="svg2"
   inkscape:version="0.48.5 r10040"
   sodipodi:docname="removehover.svg"
   inkscape:export-filename="/home/davo/public_html/collagearts/mod/euroaspire/pix/removehover.png"
   inkscape:export-xdpi="90"
   inkscape:export-ydpi="90"><metadata
     id="metadata10"><rdf:RDF><cc:Work
         rdf:about=""><dc:format>image/svg+xml</dc:format><dc:type
           rdf:resource="http://purl.org/dc/dcmitype/StillImage" /><dc:title /></cc:Work></rdf:RDF></metadata><sodipodi:namedview
     pagecolor="#ffffff"
     bordercolor="#666666"
     borderopacity="1"
     objecttolerance="10"
     gridtolerance="10"
     guidetolerance="10"
     inkscape:pageopacity="0"
     inkscape:pageshadow="2"
     inkscape:window-width="1361"
     inkscape:window-height="1037"
     id="namedview8"
     showgrid="false"
     inkscape:zoom="19.666667"
     inkscape:cx="-7.8305084"
     inkscape:cy="6.0000001"
     inkscape:window-x="0"
     inkscape:window-y="0"
     inkscape:window-maximized="0"
     inkscape:current-layer="svg2" /><defs
     id="defs4"><radialGradient
       inkscape:collect="always"
       xlink:href="#linearGradient3785"
       id="radialGradient3791"
       cx="5.9237289"
       cy="5.9237289"
       fx="5.9237289"
       fy="5.9237289"
       r="4.6016951"
       gradientUnits="userSpaceOnUse" /><linearGradient
       id="linearGradient3785"><stop
         style="stop-color:#ff0000;stop-opacity:1;"
         offset="0"
         id="stop3787" /><stop
         style="stop-color:#ff0000;stop-opacity:0;"
         offset="1"
         id="stop3789" /></linearGradient><radialGradient
       r="4.6016951"
       fy="5.9237289"
       fx="5.9237289"
       cy="5.9237289"
       cx="5.9237289"
       gradientUnits="userSpaceOnUse"
       id="radialGradient3776"
       xlink:href="#linearGradient3785"
       inkscape:collect="always" /></defs><path
     sodipodi:type="arc"
     style="color:#000000;fill:url(#radialGradient3776);fill-opacity:1;fill-rule:nonzero;stroke:none;stroke-width:13.20300007;marker:none;visibility:visible;display:inline;overflow:visible;enable-background:accumulate"
     id="path3783"
     sodipodi:cx="5.9237289"
     sodipodi:cy="5.9237289"
     sodipodi:rx="4.6016951"
     sodipodi:ry="4.6016951"
     d="m 10.525424,5.9237289 a 4.6016951,4.6016951 0 1 1 -9.2033901,0 4.6016951,4.6016951 0 1 1 9.2033901,0 z"
     transform="matrix(1.2430939,0,0,1.2651934,-1.8145983,-1.7438154)"
     inkscape:export-xdpi="90"
     inkscape:export-ydpi="90" /><path
     style="fill:#4f4f4f;fill-opacity:1"
     d="M7.8,5.6L11,2.4c0.4-0.4,0.4-1,0-1.4l-0.7-0.7c-0.4-0.4-1-0.4-1.4,0L5.6,3.5L2.4,0.3  C2-0.1,1.4-0.1,1,0.3L0.3,1c-0.4,0.4-0.4,1,0,1.4l3.2,3.2L0.3,8.9c-0.4,0.4-0.4,1,0,1.4L1,11c0.4,0.4,1,0.4,1.4,0l3.2-3.2L8.9,11  c0.4,0.4,1,0.4,1.4,0l0.7-0.7c0.4-0.4,0.4-1,0-1.4L7.8,5.6z"
     id="path6" /></svg>